<?xml version="1.0" encoding="iso-8859-1"?>
<!-- Generator: Adobe Illustrator 17.1.0, SVG Export Plug-In . SVG Version: 6.00 Build 0)  -->
<!DOCTYPE svg PUBLIC "-//W3C//DTD SVG 1.1//EN" "http://www.w3.org/Graphics/SVG/1.1/DTD/svg11.dtd">
<svg xmlns="http://www.w3.org/2000/svg" xmlns:xlink="http://www.w3.org/1999/xlink" version="1.1" id="Capa_1" x="0px" y="0px" viewBox="0 0 511.992 511.992" style="enable-background:new 0 0 511.992 511.992;" xml:space="preserve" width="512px" height="512px">
<path d="M503.691,464.092L287.317,255.424L507.37,27.245c6.178-6.243,6.158-16.348-0.061-22.567  c-6.218-6.217-16.322-6.237-22.566-0.06l-228.747,220.6L27.248,4.617C21.005-1.559,10.9-1.539,4.682,4.679  c-6.218,6.218-6.238,16.322-0.061,22.566l220.053,228.18L8.3,464.092c-0.035,0.033-0.069,0.067-0.104,0.102  c-10.917,10.917-10.917,28.681,0,39.598c5.289,5.289,12.32,8.201,19.799,8.201c7.479,0,14.511-2.913,19.799-8.201  c0.034-0.034,0.068-0.069,0.101-0.104l208.1-215.785l208.1,215.785c0.033,0.035,0.067,0.069,0.102,0.104  c5.289,5.289,12.32,8.201,19.799,8.201c7.479,0,14.511-2.913,19.799-8.201c10.917-10.917,10.917-28.681,0-39.598  C503.76,464.159,503.726,464.125,503.691,464.092z M382.879,396.423l13.548-13.548l78.077,75.296l-16.328,16.328L382.879,396.423z   M495.892,16.094c0.035-0.033,0.07-0.068,0.104-0.102c-0.034,0.034-0.068,0.068-0.102,0.104L275.801,244.318l-8.281-7.986  L495.892,16.094z M15.997,15.992c0.034,0.034,0.068,0.068,0.103,0.101l368.808,355.673l-13.137,13.137L16.097,16.096  C16.064,16.061,16.031,16.027,15.997,15.992z M53.817,474.499l-16.328-16.328l78.077-75.296l13.548,13.548L53.817,474.499z   M27.996,495.992c-3.205,0-6.219-1.248-8.485-3.515c-4.664-4.665-4.679-12.244-0.043-16.927l6.503-6.271l16.739,16.739l-6.273,6.504  C34.174,494.761,31.18,495.992,27.996,495.992z M140.221,384.904l-13.137-13.137l108.697-104.826l9.101,9.437L140.221,384.904z   M492.48,492.477c-2.266,2.267-5.279,3.515-8.485,3.515c-3.184,0-6.179-1.231-8.44-3.47l-6.273-6.504l16.739-16.739l6.504,6.273  C497.16,480.235,497.145,487.814,492.48,492.477z" fill="#BEA066"/>
<g>
</g>
<g>
</g>
<g>
</g>
<g>
</g>
<g>
</g>
<g>
</g>
<g>
</g>
<g>
</g>
<g>
</g>
<g>
</g>
<g>
</g>
<g>
</g>
<g>
</g>
<g>
</g>
<g>
</g>
</svg>
