<?xml version="1.0"?>
<svg xmlns="http://www.w3.org/2000/svg" xmlns:xlink="http://www.w3.org/1999/xlink" version="1.1" id="Capa_1" x="0px" y="0px" viewBox="0 0 512 512" style="enable-background:new 0 0 512 512;" xml:space="preserve" width="512px" height="512px" class=""><g><g>
	<g>
		<path d="M256,0C156.011,0,74.667,81.344,74.667,181.333c0,96.725,165.781,317.099,172.843,326.443    c1.984,2.667,5.163,4.224,8.491,4.224c3.328,0,6.507-1.557,8.491-4.224c7.061-9.344,172.843-229.717,172.843-326.443    C437.333,81.344,355.989,0,256,0z M256,277.333c-52.928,0-96-43.072-96-96c0-52.928,43.072-96,96-96s96,43.072,96,96    C352,234.261,308.928,277.333,256,277.333z" data-original="#000000" class="active-path" data-old_color="#000000" fill="#BEA066"/>
	</g>
</g></g> </svg>
