<svg xmlns="http://www.w3.org/2000/svg" viewBox="0 0 300 200"><title>legend-logo-black</title><path d="M42,166.94q-5.64-4.19-14.68-4.19t-14.71,4.19A13.52,13.52,0,0,0,7,178.37v9.35c0,1.91-.56,3.22-1.67,3.95A9.89,9.89,0,0,1,0,192.77V200H5.93q8,0,11.27-2.55,3-2.28,3-7.73V177.86q0-6.16,7.12-6.17t7.19,6.17V200H47.61V178.37A13.51,13.51,0,0,0,42,166.94Z" style="fill:#1a1a1a"/><path d="M54.72,187.73Q54.72,200,73.4,200H82.9v-8.55H73.63q-5.63,0-5.63-3.76v-2.39H82.9v-8.55H68V172H82.9v-8.6H54.72Z" style="fill:#1a1a1a"/><path d="M94.31,166.36q-4.61,3-4.6,9.26V200H103V175.67q0-3.77,5.64-3.77h11.12v-8.55H108.4Q98.91,163.36,94.31,166.36Z" style="fill:#1a1a1a"/><path d="M125.23,187.73q0,12.27,18.69,12.27h9.49v-8.55h-9.27q-5.64,0-5.63-3.76v-2.39h14.9v-8.55h-14.9V172h14.9v-8.6H125.23Z" style="fill:#1a1a1a"/><polygon points="188.11 176.33 173.95 176.33 173.95 163.36 160.68 163.36 160.68 200 173.95 200 173.95 185.19 188.11 185.19 188.11 200 201.3 200 201.3 163.36 188.11 163.36 188.11 176.33" style="fill:#1a1a1a"/><path d="M251,178.37a13.49,13.49,0,0,0-5.63-11.44q-5.63-4.19-14.68-4.19t-14.73,4.19a13.55,13.55,0,0,0-5.6,11.44V191h-4.07v9h48.42v-9H251ZM237.86,191H223.55V177.86q0-6.16,7.12-6.17t7.19,6.17Z" style="fill:#1a1a1a"/><path d="M294.36,166.87q-5.64-4.17-14.76-4.17t-14.72,4.21a13.51,13.51,0,0,0-5.6,11.41V200h13.2V177.8q0-6.2,7.11-6.21a8.07,8.07,0,0,1,5.27,1.58,5.17,5.17,0,0,1,1.93,4.22v2.9H276v8.6H286.8V200H300V178.31A13.47,13.47,0,0,0,294.36,166.87Z" style="fill:#1a1a1a"/><polygon points="70.51 79.97 0 0 65.26 85.03 70.51 79.97" style="fill:#1a1a1a"/><polygon points="300 0 229.49 79.97 234.73 85.03 300 0" style="fill:#1a1a1a"/><path d="M149.93,137.57h.14a85.68,85.68,0,0,0,19.24-2.21C209.24,126.13,230.15,91,230.15,91L192.09,55.82s2.12,18.74-.73,29.7c-3,11.6-15.33,31.05-41.36,31.09s-38.35-19.49-41.37-31.09c-2.85-11-.73-29.7-.73-29.7L69.85,91s20.91,35.12,60.84,44.36A85.71,85.71,0,0,0,149.93,137.57Z" style="fill:#1a1a1a"/><path d="M115,76.9c1.89,14,13.62,30.8,34.91,30.81H150c21.29,0,33-16.78,34.91-30.81.51-3.79.1-17.8-.61-29.66L220.53,0l-44.8,45.22c1.06,15.38.91,26.59.37,30.61C175,83.92,168.28,99.27,150,99.29h-.07c-18.32,0-25-15.37-26.14-23.46-.54-4-.7-15.23.37-30.61L79.33,0,115.6,47.25C114.88,59.1,114.48,73.12,115,76.9Z" style="fill:#1a1a1a"/><path d="M149.93,53.75a26.88,26.88,0,1,0-26.87-26.87A26.87,26.87,0,0,0,149.93,53.75Z" style="fill:#1a1a1a"/></svg>